<?xml version="1.0" encoding="UTF-8" standalone="no"?>
<svg
   width="200.994"
   viewBox="0 0 360.0908 74.266998"
   version="1.1"
   id="svg22"
   sodipodi:docname="cdl-logo.svg"
   height="74.266998"
   inkscape:version="1.2.2 (b0a8486, 2022-12-01)"
   xmlns:inkscape="http://www.inkscape.org/namespaces/inkscape"
   xmlns:sodipodi="http://sodipodi.sourceforge.net/DTD/sodipodi-0.dtd"
   xmlns="http://www.w3.org/2000/svg"
   xmlns:svg="http://www.w3.org/2000/svg">
  <defs
     id="defs26" />
  <sodipodi:namedview
     id="namedview24"
     pagecolor="#ffffff"
     bordercolor="#000000"
     borderopacity="0.25"
     inkscape:showpageshadow="2"
     inkscape:pageopacity="0.0"
     inkscape:pagecheckerboard="0"
     inkscape:deskcolor="#d1d1d1"
     showgrid="false"
     inkscape:zoom="1.8228161"
     inkscape:cx="22.218369"
     inkscape:cy="40.870827"
     inkscape:window-width="1549"
     inkscape:window-height="703"
     inkscape:window-x="2002"
     inkscape:window-y="188"
     inkscape:window-maximized="0"
     inkscape:current-layer="svg22" />
  <g
     id="g196"
     transform="translate(0.8954,-2.583116)">
    <g
       fill="#666666"
       id="g4"
       transform="translate(0,-25.018385)">
      <path
         d="m 149.8,0.27 h 1.24 v 8.07 c -0.02,3.03 1.43,4.18 3.82,4.18 2.4,0 3.85,-1.15 3.83,-4.18 V 0.27 h 1.24 v 8.34 c 0,2.69 -1.44,4.97 -5.07,4.97 -3.62,0 -5.06,-2.28 -5.06,-4.97 z m 13.95,3.62 h 1.15 V 5.5 h 0.04 c 0.42,-1.13 1.68,-1.9 3,-1.9 2.65,0 3.46,1.4 3.46,3.64 v 6.06 h -1.15 V 7.42 c 0,-1.63 -0.53,-2.85 -2.4,-2.85 -1.82,0 -2.91,1.39 -2.95,3.23 v 5.5 h -1.15 V 3.88 Z m 11.39,-3.62 h 1.15 v 1.85 h -1.15 z m 0,3.62 h 1.15 v 9.41 h -1.15 V 3.9 Z m 3.86,0 h 1.27 l 2.96,8.26 h 0.03 l 2.92,-8.26 h 1.19 l -3.52,9.41 h -1.23 L 179,3.9 Z m 11.73,5.01 c 0.02,1.69 0.9,3.71 3.1,3.71 1.68,0 2.6,-0.98 2.96,-2.4 h 1.15 c -0.5,2.13 -1.74,3.37 -4.1,3.37 -3,0 -4.26,-2.3 -4.26,-4.98 0,-2.49 1.26,-4.99 4.25,-4.99 3.03,0 4.24,2.65 4.15,5.3 h -7.25 z m 6.1,-0.96 c -0.06,-1.74 -1.14,-3.36 -3,-3.36 -1.88,0 -2.92,1.64 -3.1,3.36 z m 4.25,-4.05 h 1.06 v 2.2 h 0.04 a 3.48,3.48 0 0 1 3.56,-2.33 V 4.9 c -2.09,-0.11 -3.5,1.42 -3.5,3.38 v 5.01 h -1.16 V 3.9 Z m 12.94,2.75 c -0.05,-1.42 -1.15,-2.06 -2.46,-2.06 -1.02,0 -2.23,0.4 -2.23,1.62 0,1.03 1.17,1.4 1.95,1.6 l 1.54,0.34 c 1.31,0.2 2.68,0.97 2.68,2.61 0,2.04 -2.03,2.83 -3.78,2.83 -2.19,0 -3.68,-1.02 -3.87,-3.32 H 209 c 0.1,1.55 1.24,2.35 2.78,2.35 1.07,0 2.57,-0.47 2.57,-1.79 0,-1.1 -1.02,-1.46 -2.06,-1.71 l -1.48,-0.33 c -1.5,-0.4 -2.63,-0.91 -2.63,-2.52 0,-1.92 1.88,-2.65 3.54,-2.65 1.88,0 3.38,0.99 3.45,3.03 z m 4.71,-6.37 h 1.15 v 1.85 h -1.15 z m 0,3.62 h 1.15 v 9.41 h -1.15 V 3.9 Z m 6.74,0 h 1.91 v 0.96 h -1.91 v 6.36 c 0,0.74 0.1,1.18 0.93,1.24 0.33,0 0.66,-0.02 0.98,-0.06 v 0.99 c -0.34,0 -0.67,0.03 -1.02,0.03 -1.53,0 -2.06,-0.5 -2.04,-2.11 V 4.85 h -1.64 V 3.9 h 1.64 V 1.06 h 1.15 z m 4.07,0 h 1.22 l 3.1,8.03 2.9,-8.03 h 1.16 l -4.1,10.86 c -0.65,1.58 -1.03,2.04 -2.47,2.04 -0.46,-0.02 -0.7,-0.02 -0.88,-0.1 v -0.96 c 0.27,0.06 0.53,0.1 0.79,0.1 1.02,0 1.25,-0.61 1.64,-1.49 l 0.4,-1.07 z m 26.12,4.71 c 0,2.7 -1.57,4.98 -4.45,4.98 -2.88,0 -4.46,-2.28 -4.46,-4.98 0,-2.7 1.57,-4.99 4.46,-4.99 2.89,0 4.45,2.28 4.45,4.99 z m -7.76,0 c 0,2 1.1,4.01 3.3,4.01 2.2,0 3.31,-2 3.31,-4.01 0,-2.01 -1.1,-4.02 -3.3,-4.02 -2.2,0 -3.3,2 -3.3,4.02 z m 14.66,-3.75 h -1.86 v 8.45 h -1.15 V 4.85 h -1.6 V 3.9 h 1.6 V 3.04 c -0.02,-1.63 0.44,-2.76 2.28,-2.76 0.33,0 0.6,0.02 0.97,0.08 v 0.98 c -0.31,-0.05 -0.57,-0.09 -0.84,-0.09 -1.28,0 -1.24,0.8 -1.26,1.83 V 3.9 h 1.86 v 0.96 z m 19.02,-0.64 c -0.44,-2 -2.1,-3.15 -4,-3.15 -3.44,0 -4.9,2.88 -4.9,5.73 0,2.85 1.46,5.73 4.9,5.73 2.41,0 3.95,-1.86 4.18,-4.18 h 1.25 c -0.35,3.2 -2.38,5.24 -5.42,5.24 -4.11,0 -6.15,-3.23 -6.15,-6.8 0,-3.57 2.04,-6.78 6.13,-6.78 2.47,0 4.91,1.48 5.24,4.21 h -1.24 z m 4.55,2.56 c 0.1,-2.2 1.66,-3.16 3.81,-3.16 1.66,0 3.47,0.52 3.47,3.03 v 5 c 0,0.44 0.22,0.7 0.68,0.7 0.13,0 0.27,-0.04 0.36,-0.08 v 0.97 c -0.25,0.06 -0.44,0.07 -0.75,0.07 -1.17,0 -1.35,-0.65 -1.35,-1.64 h -0.03 c -0.8,1.22 -1.63,1.92 -3.44,1.92 -1.73,0 -3.15,-0.86 -3.15,-2.76 0,-2.65 2.57,-2.74 5.05,-3.03 0.95,-0.1 1.48,-0.24 1.48,-1.28 0,-1.55 -1.11,-1.93 -2.46,-1.93 -1.43,0 -2.48,0.66 -2.52,2.19 z m 6.13,1.39 h -0.03 c -0.15,0.27 -0.66,0.36 -0.97,0.42 -1.95,0.34 -4.38,0.33 -4.38,2.17 0,1.15 1.02,1.86 2.1,1.86 1.75,0 3.3,-1.11 3.28,-2.96 v -1.5 z m 5.02,-7.89 h 1.15 V 13.3 h -1.15 z m 4.93,0 h 1.15 v 1.85 h -1.15 z m 0,3.62 h 1.15 v 9.41 h -1.15 V 3.9 Z m 8.54,0.96 h -1.86 v 8.45 h -1.14 V 4.85 h -1.61 V 3.9 h 1.6 V 3.04 c -0.01,-1.63 0.44,-2.76 2.29,-2.76 0.32,0 0.6,0.02 0.96,0.08 v 0.98 c -0.3,-0.05 -0.56,-0.09 -0.84,-0.09 -1.27,0 -1.24,0.8 -1.26,1.83 V 3.9 h 1.87 v 0.96 z m 11.08,3.75 c 0,2.7 -1.56,4.98 -4.45,4.98 -2.89,0 -4.45,-2.28 -4.45,-4.98 0,-2.7 1.57,-4.99 4.45,-4.99 2.88,0 4.45,2.28 4.45,4.99 z m -7.75,0 c 0,2 1.1,4.01 3.3,4.01 2.2,0 3.3,-2 3.3,-4.01 0,-2.01 -1.1,-4.02 -3.3,-4.02 -2.2,0 -3.3,2 -3.3,4.02 z M 325.1,3.89 h 1.06 v 2.2 h 0.04 a 3.48,3.48 0 0 1 3.56,-2.33 V 4.9 c -2.08,-0.11 -3.5,1.42 -3.5,3.38 v 5.01 H 325.1 V 3.9 Z m 7.61,0 h 1.15 V 5.5 h 0.04 c 0.42,-1.13 1.68,-1.9 3,-1.9 2.66,0 3.46,1.4 3.46,3.64 v 6.06 h -1.15 V 7.42 c 0,-1.63 -0.53,-2.85 -2.4,-2.85 -1.82,0 -2.91,1.39 -2.95,3.23 v 5.5 h -1.15 V 3.88 Z M 344.1,0.27 h 1.15 v 1.85 h -1.15 z m 0,3.62 h 1.15 V 13.3 H 344.1 V 3.9 Z m 4.8,2.88 c 0.11,-2.2 1.66,-3.16 3.82,-3.16 1.66,0 3.46,0.52 3.46,3.03 v 5 c 0,0.44 0.22,0.7 0.68,0.7 0.13,0 0.27,-0.04 0.36,-0.08 v 0.97 c -0.25,0.06 -0.43,0.07 -0.74,0.07 -1.17,0 -1.35,-0.65 -1.35,-1.64 h -0.04 c -0.8,1.22 -1.62,1.92 -3.43,1.92 -1.74,0 -3.16,-0.86 -3.16,-2.76 0,-2.65 2.57,-2.74 5.06,-3.03 0.95,-0.1 1.48,-0.24 1.48,-1.28 0,-1.55 -1.12,-1.93 -2.47,-1.93 -1.42,0 -2.48,0.66 -2.52,2.19 z m 6.14,1.39 H 355 c -0.15,0.27 -0.66,0.36 -0.97,0.42 -1.95,0.34 -4.38,0.33 -4.38,2.17 0,1.15 1.02,1.86 2.1,1.86 1.75,0 3.3,-1.11 3.29,-2.96 v -1.5 z"
         id="path2" />
    </g>
    <path
       fill="#839ec8"
       d="m 18.68,28.081615 c 3.12,14.23 17.41,23.23 30.33,20.7 -9.82,-2.76 -18.06,-11.36 -20.57,-22.85 C 25.92,14.451616 29.81,3.1916157 37.58,-3.4183853 24.78,-0.31838423 15.56,13.831616 18.68,28.081615 Z"
       id="path6" />
    <path
       fill="#005695"
       d="m 99.23,74.401615 c 14.26,-25.18 5.06,-57.41 -17.38,-70.7999993 10.85,17.0999993 11.63,40.7199993 0.13,61.0299993 -11.51,20.3 -32.17,31.78 -52.41,31.26 23.01,12.369995 55.4,3.689995 69.66,-21.49 z"
       id="path8" />
    <path
       fill="#fab816"
       d="M 48.5,-3.7583853 C 36.55,1.0816157 30.84,14.891616 34.97,25.781615 c 0.94,-8.97 7.2,-17.4399989 16.85,-21.3499993 9.64,-3.89999993 20.03,-2.2 26.95,3.6000004 C 74.16,-2.6683853 60.45,-8.5983851 48.5,-3.7583853 Z"
       id="path10" />
    <path
       fill="#678bbb"
       d="m 25.08,62.711615 c 16.81,7.03 36.28,-1.14 42.96,-16.18 -9.87,8.07 -24.58,10.33 -38.14,4.66 -13.57,-5.67 -22.3,-17.73 -23.48,-30.42 -6,15.31 1.85,34.91 18.66,41.94 z"
       id="path12" />
    <path
       fill="#4979af"
       d="m 46.88,85.351615 c 21.42,-4.41 35.18,-25.68 31.63,-45.1 -4.33,14.67 -17.38,26.86 -34.66,30.42 -17.27,3.56 -34.08,-2.49 -43.85,-14.26 4.42,19.25 25.46,33.35 46.88,28.94 z"
       id="path14" />
    <g
       fill="#231f20"
       id="g18"
       transform="translate(0,-25.018385)">
      <path
         d="m 160.06,114.92 a 4.47,4.47 0 0 0 -4.52,-3.58 c -3.91,0 -5.56,3.27 -5.56,6.5 0,3.22 1.65,6.48 5.56,6.48 2.73,0 4.46,-2.1 4.73,-4.73 h 1.4 c -0.4,3.62 -2.68,5.93 -6.13,5.93 -4.65,0 -6.97,-3.65 -6.97,-7.69 0,-4.02 2.32,-7.68 6.97,-7.68 2.78,0 5.55,1.67 5.93,4.77 z m 3.39,2.89 c 0.12,-2.5 1.89,-3.57 4.32,-3.57 1.88,0 3.93,0.58 3.93,3.43 v 5.66 c 0,0.5 0.25,0.79 0.76,0.79 0.15,0 0.31,-0.05 0.41,-0.09 v 1.1 c -0.29,0.06 -0.5,0.08 -0.84,0.08 -1.32,0 -1.53,-0.74 -1.53,-1.85 h -0.04 c -0.91,1.38 -1.84,2.16 -3.89,2.16 -1.96,0 -3.57,-0.97 -3.57,-3.12 0,-3 2.91,-3.1 5.72,-3.43 1.08,-0.12 1.68,-0.27 1.68,-1.44 0,-1.76 -1.27,-2.2 -2.8,-2.2 -1.6,0 -2.8,0.75 -2.85,2.49 h -1.3 z m 6.95,1.58 h -0.05 c -0.16,0.3 -0.74,0.41 -1.09,0.47 -2.21,0.4 -4.96,0.37 -4.96,2.46 0,1.3 1.16,2.1 2.38,2.1 1.97,0 3.73,-1.25 3.71,-3.34 v -1.7 z m 3.92,-8.93 h 1.3 v 14.75 h -1.3 z m 3.82,0 h 1.3 v 2.08 h -1.3 z m 0,4.09 h 1.3 v 10.66 h -1.3 z m 7.92,1.1 h -2.1 v 9.56 h -1.3 v -9.56 h -1.82 v -1.1 h 1.81 v -0.97 c -0.02,-1.84 0.5,-3.12 2.58,-3.12 0.38,0 0.68,0.02 1.1,0.08 v 1.11 c -0.35,-0.06 -0.64,-0.1 -0.95,-0.1 -1.45,0 -1.4,0.91 -1.43,2.07 v 0.92 h 2.1 v 1.1 z m 10.79,4.23 c 0,3.06 -1.78,5.64 -5.04,5.64 -3.27,0 -5.05,-2.58 -5.05,-5.64 0,-3.06 1.78,-5.64 5.05,-5.64 3.26,0 5.04,2.58 5.04,5.64 z m -8.79,0 c 0,2.27 1.24,4.55 3.75,4.55 2.5,0 3.74,-2.28 3.74,-4.55 0,-2.27 -1.24,-4.54 -3.74,-4.54 -2.5,0 -3.75,2.27 -3.75,4.54 z m 10.74,-5.33 h 1.19 v 2.5 h 0.05 a 3.94,3.94 0 0 1 4.03,-2.64 v 1.3 c -2.36,-0.13 -3.97,1.6 -3.97,3.82 v 5.68 h -1.3 z m 6.85,0 h 1.3 v 1.84 h 0.04 c 0.48,-1.28 1.9,-2.15 3.41,-2.15 3,0 3.91,1.57 3.91,4.11 v 6.86 h -1.3 v -6.65 c 0,-1.84 -0.6,-3.23 -2.71,-3.23 -2.07,0 -3.3,1.58 -3.35,3.66 v 6.22 h -1.3 z m 11.14,-4.09 h 1.3 v 2.08 h -1.3 z m 0,4.09 h 1.3 v 10.66 h -1.3 z m 3.68,3.26 c 0.12,-2.5 1.88,-3.57 4.32,-3.57 1.88,0 3.93,0.58 3.93,3.43 v 5.66 c 0,0.5 0.24,0.79 0.76,0.79 0.15,0 0.31,-0.05 0.41,-0.09 v 1.1 c -0.29,0.06 -0.5,0.08 -0.84,0.08 -1.33,0 -1.53,-0.74 -1.53,-1.85 h -0.04 c -0.91,1.38 -1.84,2.16 -3.89,2.16 -1.96,0 -3.58,-0.97 -3.58,-3.12 0,-3 2.92,-3.1 5.73,-3.43 1.08,-0.12 1.68,-0.27 1.68,-1.44 0,-1.76 -1.26,-2.2 -2.8,-2.2 -1.6,0 -2.8,0.75 -2.85,2.49 h -1.3 z m 6.94,1.58 h -0.04 c -0.16,0.3 -0.74,0.41 -1.1,0.47 -2.2,0.4 -4.95,0.37 -4.95,2.46 0,1.3 1.15,2.1 2.37,2.1 1.99,0 3.74,-1.25 3.72,-3.34 v -1.7 z m 9.9,-8.93 h 5.1 c 4.45,0.1 6.79,2.54 6.79,7.37 0,4.84 -2.34,7.28 -6.78,7.38 h -5.1 v -14.75 z m 1.4,13.56 h 3 c 4.24,0.02 6.08,-1.78 6.08,-6.19 0,-4.4 -1.84,-6.2 -6.07,-6.17 h -3 v 12.36 z m 12.54,-13.56 h 1.3 v 2.08 h -1.3 z m 0,4.09 h 1.3 v 10.66 h -1.3 z m 12.81,9.8 c -0.02,3.18 -1.25,5.12 -4.74,5.12 -2.12,0 -4.23,-0.95 -4.41,-3.23 h 1.3 c 0.29,1.57 1.67,2.13 3.11,2.13 2.4,0 3.44,-1.42 3.44,-4.02 v -1.45 h -0.05 a 3.7,3.7 0 0 1 -3.39,2.19 c -3.4,0 -4.8,-2.44 -4.8,-5.48 0,-2.94 1.73,-5.37 4.8,-5.37 1.56,0 2.87,0.97 3.4,2.15 h 0.04 v -1.85 h 1.3 v 9.8 z m -1.3,-4.6 c 0,-2.08 -0.97,-4.41 -3.44,-4.41 -2.48,0 -3.5,2.2 -3.5,4.42 0,2.15 1.1,4.23 3.5,4.23 2.25,0 3.44,-2.06 3.44,-4.23 z m 3.8,-9.29 h 1.3 v 2.08 h -1.3 z m 0,4.09 h 1.3 v 10.66 h -1.3 z m 5.87,0 h 2.17 v 1.1 h -2.17 v 7.19 c 0,0.84 0.12,1.34 1.05,1.4 0.38,0 0.75,-0.02 1.12,-0.06 v 1.11 c -0.4,0 -0.77,0.05 -1.16,0.05 -1.73,0 -2.34,-0.58 -2.31,-2.4 v -7.3 h -1.86 v -1.1 h 1.86 v -3.2 h 1.3 v 3.2 z m 3.93,3.26 c 0.12,-2.5 1.87,-3.57 4.32,-3.57 1.87,0 3.92,0.58 3.92,3.43 v 5.66 c 0,0.5 0.25,0.79 0.77,0.79 0.14,0 0.3,-0.05 0.4,-0.09 v 1.1 c -0.28,0.06 -0.5,0.08 -0.84,0.08 -1.32,0 -1.53,-0.74 -1.53,-1.85 h -0.04 c -0.9,1.38 -1.83,2.16 -3.88,2.16 -1.97,0 -3.58,-0.97 -3.58,-3.12 0,-3 2.92,-3.1 5.73,-3.43 1.07,-0.12 1.67,-0.27 1.67,-1.44 0,-1.76 -1.26,-2.2 -2.8,-2.2 -1.6,0 -2.8,0.75 -2.84,2.49 h -1.3 z m 6.94,1.58 h -0.04 c -0.17,0.3 -0.74,0.41 -1.1,0.47 -2.2,0.4 -4.96,0.37 -4.96,2.46 0,1.3 1.16,2.1 2.38,2.1 1.98,0 3.74,-1.25 3.72,-3.34 v -1.7 z m 3.93,-8.93 h 1.3 v 14.75 h -1.3 z m 9.79,0 h 1.4 v 13.56 h 8.28 v 1.2 h -9.68 z m 10.88,0 h 1.3 v 2.08 h -1.3 z m 0,4.09 h 1.3 v 10.66 h -1.3 z m 3.8,-4.09 h 1.3 v 6.12 h 0.04 c 0.56,-1.54 2.11,-2.34 3.7,-2.34 3.25,0 4.8,2.62 4.8,5.64 0,3.02 -1.55,5.64 -4.8,5.64 -1.72,0 -3.2,-0.89 -3.8,-2.33 h -0.04 v 2.02 h -1.2 z m 5.04,4.88 c -2.77,0 -3.74,2.33 -3.74,4.54 0,2.21 0.97,4.55 3.74,4.55 2.48,0 3.5,-2.34 3.5,-4.55 0,-2.21 -1.02,-4.55 -3.5,-4.55 z m 6.82,-0.79 h 1.2 v 2.5 h 0.04 a 3.94,3.94 0 0 1 4.03,-2.64 v 1.3 c -2.36,-0.13 -3.97,1.6 -3.97,3.82 v 5.68 h -1.3 z m 6.39,3.26 c 0.12,-2.5 1.88,-3.57 4.32,-3.57 1.88,0 3.93,0.58 3.93,3.43 v 5.66 c 0,0.5 0.25,0.79 0.76,0.79 0.15,0 0.3,-0.05 0.41,-0.09 v 1.1 c -0.3,0.06 -0.5,0.08 -0.85,0.08 -1.32,0 -1.53,-0.74 -1.53,-1.85 h -0.04 c -0.9,1.38 -1.84,2.16 -3.88,2.16 -1.96,0 -3.57,-0.97 -3.57,-3.12 0,-3 2.9,-3.1 5.72,-3.43 1.07,-0.12 1.67,-0.27 1.67,-1.44 0,-1.76 -1.26,-2.2 -2.8,-2.2 -1.6,0 -2.8,0.75 -2.84,2.49 h -1.3 z m 6.94,1.58 h -0.04 c -0.17,0.3 -0.74,0.41 -1.1,0.47 -2.2,0.4 -4.96,0.37 -4.96,2.46 0,1.3 1.16,2.1 2.38,2.1 1.98,0 3.74,-1.25 3.72,-3.34 v -1.7 z m 3.91,-4.84 h 1.2 v 2.5 h 0.04 a 3.94,3.94 0 0 1 4.03,-2.64 v 1.3 c -2.36,-0.13 -3.97,1.6 -3.97,3.82 v 5.68 h -1.3 z m 5.31,0 h 1.38 l 3.52,9.1 3.28,-9.1 h 1.3 l -4.62,12.3 c -0.75,1.8 -1.18,2.3 -2.81,2.3 -0.52,-0.01 -0.8,-0.01 -1,-0.1 v -1.1 c 0.31,0.07 0.6,0.11 0.9,0.11 1.15,0 1.42,-0.68 1.85,-1.67 l 0.46,-1.22 z"
         id="path16" />
    </g>
    <path
       d="m 201.99,25.611615 c -3.12,-11.409999 -9.17,-14.529999 -17.46,-14.529999 -15.02,0 -22.04,13.359999 -22.04,27.399999 0,18.04 8.88,30.13 21.84,30.13 9.76,0 14.73,-5.36 19.8,-15.8 l 3.51,0.68 c -1.27,5.28 -3.41,13.07 -4.97,16.78 -2.73,0.68 -11.5,2.73 -18.23,2.73 -26.04,0 -36.37,-16.58 -36.37,-32.28 0,-19.2 15.1,-34.0299989 38.12,-34.0299989 8.3,0 14.83,1.95 17.56,2.54 0.77,5.3599999 1.16,9.6499989 1.75,15.7999989 z M 254.26,8.1516161 c 11.21,0 21.16,2.4399999 27.7,8.6799989 a 28.3,28.3 0 0 1 8.38,20.28 c 0,24 -18.43,34.42 -41.35,34.42 h -24.67 v -3.11 c 7.6,-0.6 8.38,-1.27 8.38,-11.8 v -33.55 c 0,-10.529999 -0.77,-11.209999 -7.6,-11.799999 V 8.1516161 Z m -8.87,47.8799989 c 0,8.97 0.97,11.12 8,11.12 14.03,0 22.71,-10.93 22.71,-27.3 0,-20.97 -10.63,-27.499999 -24.47,-27.499999 -2.83,0 -4.98,0.29 -5.56,0.68 -0.59,0.39 -0.68,2.44 -0.68,5.069999 z m 84.44,0.2 c 0,7.12 0.39,9.26 2.44,10.14 1.66,0.68 4.29,0.78 7.32,0.78 3.8,0 8.29,-0.59 10.52,-3.02 1.56,-1.86 3.12,-4.98 4.69,-9.66 l 3.5,0.69 c -0.58,3.8 -2.53,13.74 -3.4,16.38 h -46.52 v -3.12 c 8,-0.6 8.78,-1.27 8.78,-11.8 v -33.55 c 0,-10.529999 -0.78,-11.209999 -8.2,-11.799999 V 8.1516161 h 29.26 v 3.1199999 c -7.6,0.59 -8.39,1.27 -8.39,11.799999 z"
       id="path20" />
  </g>
</svg>
