<?xml version="1.0" encoding="UTF-8"?>
<svg xmlns="http://www.w3.org/2000/svg" xmlns:xlink="http://www.w3.org/1999/xlink" width="350pt" height="148.43pt" viewBox="0 0 350 148.43" version="1.1">
<defs>
<clipPath id="clip1">
  <path d="M 216 0 L 350 0 L 350 148.429688 L 216 148.429688 Z M 216 0 "/>
</clipPath>
</defs>
<g id="surface1">
<g clip-path="url(#clip1)" clip-rule="nonzero">
<path style=" stroke:none;fill-rule:nonzero;fill:rgb(43.499756%,66.699219%,27.099609%);fill-opacity:1;" d="M 216.582031 91.1875 C 216.582031 94.675781 219.414063 97.511719 222.90625 97.511719 C 226.398438 97.511719 229.230469 94.675781 229.230469 91.1875 C 229.230469 87.695313 226.398438 84.863281 222.90625 84.863281 C 219.414063 84.863281 216.582031 87.695313 216.582031 91.1875 M 216.582031 74.210938 C 216.582031 77.703125 219.414063 80.539063 222.90625 80.539063 C 226.398438 80.539063 229.230469 77.703125 229.230469 74.210938 C 229.230469 70.722656 226.398438 67.890625 222.90625 67.890625 C 219.414063 67.890625 216.582031 70.722656 216.582031 74.210938 M 216.582031 57.242188 C 216.582031 60.734375 219.414063 63.5625 222.90625 63.5625 C 226.398438 63.5625 229.230469 60.734375 229.230469 57.242188 C 229.230469 53.75 226.398438 50.917969 222.90625 50.917969 C 219.414063 50.917969 216.582031 53.75 216.582031 57.242188 M 216.582031 40.265625 C 216.582031 43.757813 219.414063 46.59375 222.90625 46.59375 C 226.398438 46.59375 229.230469 43.757813 229.230469 40.265625 C 229.230469 36.777344 226.398438 33.945313 222.90625 33.945313 C 219.414063 33.945313 216.582031 36.777344 216.582031 40.265625 M 231.390625 116.648438 C 231.390625 120.140625 234.222656 122.96875 237.710938 122.96875 C 241.207031 122.96875 244.035156 120.140625 244.035156 116.648438 C 244.035156 113.15625 241.207031 110.320313 237.710938 110.320313 C 234.222656 110.320313 231.390625 113.152344 231.390625 116.648438 M 231.390625 99.671875 C 231.390625 103.164063 234.222656 105.996094 237.710938 105.996094 C 241.207031 105.996094 244.035156 103.164063 244.035156 99.671875 C 244.035156 96.183594 241.207031 93.351563 237.710938 93.351563 C 234.222656 93.351563 231.390625 96.183594 231.390625 99.671875 M 231.390625 82.699219 C 231.390625 86.191406 234.222656 89.023438 237.710938 89.023438 C 241.207031 89.023438 244.035156 86.191406 244.035156 82.699219 C 244.035156 79.207031 241.207031 76.378906 237.710938 76.378906 C 234.222656 76.378906 231.390625 79.207031 231.390625 82.699219 M 231.390625 65.730469 C 231.390625 69.21875 234.222656 72.050781 237.710938 72.050781 C 241.207031 72.050781 244.035156 69.21875 244.035156 65.730469 C 244.035156 62.238281 241.207031 59.402344 237.710938 59.402344 C 234.222656 59.402344 231.390625 62.234375 231.390625 65.730469 M 231.390625 48.753906 C 231.390625 52.246094 234.222656 55.078125 237.710938 55.078125 C 241.207031 55.078125 244.035156 52.246094 244.035156 48.753906 C 244.035156 45.261719 241.207031 42.433594 237.710938 42.433594 C 234.222656 42.433594 231.390625 45.261719 231.390625 48.753906 M 231.390625 31.78125 C 231.390625 35.273438 234.222656 38.101563 237.710938 38.101563 C 241.207031 38.101563 244.035156 35.273438 244.035156 31.78125 C 244.035156 28.289063 241.207031 25.457031 237.710938 25.457031 C 234.222656 25.457031 231.390625 28.289063 231.390625 31.78125 M 246.691406 125.132813 C 246.691406 128.625 249.523438 131.457031 253.015625 131.457031 C 256.511719 131.457031 259.339844 128.625 259.339844 125.132813 C 259.339844 121.644531 256.511719 118.808594 253.015625 118.808594 C 249.523438 118.808594 246.691406 121.644531 246.691406 125.132813 M 246.691406 108.160156 C 246.691406 111.652344 249.523438 114.480469 253.015625 114.480469 C 256.511719 114.480469 259.339844 111.652344 259.339844 108.160156 C 259.339844 104.667969 256.511719 101.835938 253.015625 101.835938 C 249.523438 101.835938 246.691406 104.667969 246.691406 108.160156 M 246.691406 74.210938 C 246.691406 77.703125 249.523438 80.539063 253.015625 80.539063 C 256.511719 80.539063 259.339844 77.703125 259.339844 74.210938 C 259.339844 70.722656 256.511719 67.890625 253.015625 67.890625 C 249.523438 67.890625 246.691406 70.722656 246.691406 74.210938 M 246.691406 57.242188 C 246.691406 60.734375 249.523438 63.5625 253.015625 63.5625 C 256.511719 63.5625 259.339844 60.734375 259.339844 57.242188 C 259.339844 53.75 256.511719 50.917969 253.015625 50.917969 C 249.523438 50.917969 246.691406 53.75 246.691406 57.242188 M 246.691406 40.265625 C 246.691406 43.757813 249.523438 46.59375 253.015625 46.59375 C 256.511719 46.59375 259.339844 43.757813 259.339844 40.265625 C 259.339844 36.777344 256.511719 33.945313 253.015625 33.945313 C 249.523438 33.945313 246.691406 36.777344 246.691406 40.265625 M 246.691406 23.292969 C 246.691406 26.785156 249.523438 29.617188 253.015625 29.617188 C 256.511719 29.617188 259.339844 26.785156 259.339844 23.292969 C 259.339844 19.800781 256.511719 16.972656 253.015625 16.972656 C 249.523438 16.972656 246.691406 19.800781 246.691406 23.292969 M 261.679688 133.621094 C 261.679688 137.109375 264.507813 139.941406 268 139.941406 C 271.496094 139.941406 274.328125 137.109375 274.328125 133.621094 C 274.328125 130.128906 271.496094 127.296875 268 127.296875 C 264.507813 127.296875 261.679688 130.128906 261.679688 133.621094 M 261.679688 116.648438 C 261.679688 120.140625 264.507813 122.96875 268 122.96875 C 271.496094 122.96875 274.328125 120.140625 274.328125 116.648438 C 274.328125 113.15625 271.496094 110.320313 268 110.320313 C 264.507813 110.320313 261.679688 113.152344 261.679688 116.648438 M 261.679688 99.671875 C 261.679688 103.164063 264.507813 105.996094 268 105.996094 C 271.496094 105.996094 274.328125 103.164063 274.328125 99.671875 C 274.328125 96.183594 271.496094 93.351563 268 93.351563 C 264.507813 93.351563 261.679688 96.183594 261.679688 99.671875 M 261.679688 82.699219 C 261.679688 86.191406 264.507813 89.023438 268 89.023438 C 271.496094 89.023438 274.328125 86.191406 274.328125 82.699219 C 274.328125 79.207031 271.496094 76.378906 268 76.378906 C 264.507813 76.378906 261.679688 79.207031 261.679688 82.699219 M 261.679688 65.730469 C 261.679688 69.21875 264.507813 72.050781 268 72.050781 C 271.496094 72.050781 274.328125 69.21875 274.328125 65.730469 C 274.328125 62.238281 271.496094 59.402344 268 59.402344 C 264.507813 59.402344 261.679688 62.234375 261.679688 65.730469 M 261.679688 48.753906 C 261.679688 52.246094 264.507813 55.078125 268 55.078125 C 271.496094 55.078125 274.328125 52.246094 274.328125 48.753906 C 274.328125 45.261719 271.496094 42.433594 268 42.433594 C 264.507813 42.433594 261.679688 45.261719 261.679688 48.753906 M 261.679688 31.78125 C 261.679688 35.273438 264.507813 38.101563 268 38.101563 C 271.496094 38.101563 274.328125 35.273438 274.328125 31.78125 C 274.328125 28.289063 271.496094 25.457031 268 25.457031 C 264.507813 25.457031 261.679688 28.289063 261.679688 31.78125 M 261.679688 14.808594 C 261.679688 18.300781 264.507813 21.132813 268 21.132813 C 271.496094 21.132813 274.328125 18.300781 274.328125 14.808594 C 274.328125 11.316406 271.496094 8.484375 268 8.484375 C 264.507813 8.484375 261.679688 11.316406 261.679688 14.808594 M 337.351563 108.160156 C 337.351563 111.652344 340.183594 114.480469 343.671875 114.480469 C 347.164063 114.480469 350 111.652344 350 108.160156 C 350 104.667969 347.164063 101.835938 343.671875 101.835938 C 340.183594 101.835938 337.351563 104.667969 337.351563 108.160156 M 337.351563 91.1875 C 337.351563 94.675781 340.183594 97.511719 343.671875 97.511719 C 347.164063 97.511719 350 94.675781 350 91.1875 C 350 87.695313 347.164063 84.863281 343.671875 84.863281 C 340.183594 84.863281 337.351563 87.695313 337.351563 91.1875 M 337.351563 74.210938 C 337.351563 77.703125 340.183594 80.539063 343.671875 80.539063 C 347.164063 80.539063 350 77.703125 350 74.210938 C 350 70.722656 347.164063 67.890625 343.671875 67.890625 C 340.183594 67.890625 337.351563 70.722656 337.351563 74.210938 M 337.351563 57.242188 C 337.351563 60.734375 340.183594 63.5625 343.671875 63.5625 C 347.164063 63.5625 350 60.734375 350 57.242188 C 350 53.75 347.164063 50.917969 343.671875 50.917969 C 340.183594 50.917969 337.351563 53.75 337.351563 57.242188 M 337.351563 40.265625 C 337.351563 43.757813 340.183594 46.59375 343.671875 46.59375 C 347.164063 46.59375 350 43.757813 350 40.265625 C 350 36.777344 347.164063 33.945313 343.671875 33.945313 C 340.183594 33.945313 337.351563 36.777344 337.351563 40.265625 M 322.1875 116.648438 C 322.1875 120.140625 325.019531 122.96875 328.511719 122.96875 C 332.007813 122.96875 334.839844 120.140625 334.839844 116.648438 C 334.839844 113.15625 332.007813 110.320313 328.511719 110.320313 C 325.019531 110.320313 322.1875 113.152344 322.1875 116.648438 M 322.1875 99.671875 C 322.1875 103.164063 325.019531 105.996094 328.511719 105.996094 C 332.007813 105.996094 334.839844 103.164063 334.839844 99.671875 C 334.839844 96.183594 332.007813 93.351563 328.511719 93.351563 C 325.019531 93.351563 322.1875 96.183594 322.1875 99.671875 M 322.1875 82.699219 C 322.1875 86.191406 325.019531 89.023438 328.511719 89.023438 C 332.007813 89.023438 334.839844 86.191406 334.839844 82.699219 C 334.839844 79.207031 332.007813 76.378906 328.511719 76.378906 C 325.019531 76.378906 322.1875 79.207031 322.1875 82.699219 M 322.1875 65.730469 C 322.1875 69.21875 325.019531 72.050781 328.511719 72.050781 C 332.007813 72.050781 334.839844 69.21875 334.839844 65.730469 C 334.839844 62.238281 332.007813 59.402344 328.511719 59.402344 C 325.019531 59.402344 322.1875 62.234375 322.1875 65.730469 M 322.1875 48.753906 C 322.1875 52.246094 325.019531 55.078125 328.511719 55.078125 C 332.007813 55.078125 334.839844 52.246094 334.839844 48.753906 C 334.839844 45.261719 332.007813 42.433594 328.511719 42.433594 C 325.019531 42.433594 322.1875 45.261719 322.1875 48.753906 M 322.1875 31.78125 C 322.1875 35.273438 325.019531 38.101563 328.511719 38.101563 C 332.007813 38.101563 334.839844 35.273438 334.839844 31.78125 C 334.839844 28.289063 332.007813 25.457031 328.511719 25.457031 C 325.019531 25.457031 322.1875 28.289063 322.1875 31.78125 M 307.074219 125.132813 C 307.074219 128.625 309.910156 131.457031 313.402344 131.457031 C 316.894531 131.457031 319.726563 128.625 319.726563 125.132813 C 319.726563 121.644531 316.894531 118.808594 313.402344 118.808594 C 309.910156 118.808594 307.074219 121.644531 307.074219 125.132813 M 307.074219 108.160156 C 307.074219 111.652344 309.910156 114.480469 313.402344 114.480469 C 316.894531 114.480469 319.726563 111.652344 319.726563 108.160156 C 319.726563 104.667969 316.894531 101.835938 313.402344 101.835938 C 309.910156 101.835938 307.074219 104.667969 307.074219 108.160156 M 307.074219 91.1875 C 307.074219 94.675781 309.910156 97.511719 313.402344 97.511719 C 316.894531 97.511719 319.726563 94.675781 319.726563 91.1875 C 319.726563 87.695313 316.894531 84.863281 313.402344 84.863281 C 309.910156 84.863281 307.074219 87.695313 307.074219 91.1875 M 307.074219 74.210938 C 307.074219 77.703125 309.910156 80.539063 313.402344 80.539063 C 316.894531 80.539063 319.726563 77.703125 319.726563 74.210938 C 319.726563 70.722656 316.894531 67.890625 313.402344 67.890625 C 309.910156 67.890625 307.074219 70.722656 307.074219 74.210938 M 307.074219 57.242188 C 307.074219 60.734375 309.910156 63.5625 313.402344 63.5625 C 316.894531 63.5625 319.726563 60.734375 319.726563 57.242188 C 319.726563 53.75 316.894531 50.917969 313.402344 50.917969 C 309.910156 50.917969 307.074219 53.75 307.074219 57.242188 M 307.074219 40.265625 C 307.074219 43.757813 309.910156 46.59375 313.402344 46.59375 C 316.894531 46.59375 319.726563 43.757813 319.726563 40.265625 C 319.726563 36.777344 316.894531 33.945313 313.402344 33.945313 C 309.910156 33.945313 307.074219 36.777344 307.074219 40.265625 M 307.074219 23.292969 C 307.074219 26.785156 309.910156 29.617188 313.402344 29.617188 C 316.894531 29.617188 319.726563 26.785156 319.726563 23.292969 C 319.726563 19.800781 316.894531 16.972656 313.402344 16.972656 C 309.910156 16.972656 307.074219 19.800781 307.074219 23.292969 M 292.160156 133.621094 C 292.160156 137.109375 294.988281 139.941406 298.480469 139.941406 C 301.976563 139.941406 304.804688 137.109375 304.804688 133.621094 C 304.804688 130.128906 301.976563 127.296875 298.480469 127.296875 C 294.988281 127.296875 292.160156 130.128906 292.160156 133.621094 M 292.160156 116.648438 C 292.160156 120.140625 294.988281 122.96875 298.480469 122.96875 C 301.976563 122.96875 304.804688 120.140625 304.804688 116.648438 C 304.804688 113.15625 301.976563 110.320313 298.480469 110.320313 C 294.988281 110.320313 292.160156 113.152344 292.160156 116.648438 M 292.160156 99.671875 C 292.160156 103.164063 294.988281 105.996094 298.480469 105.996094 C 301.976563 105.996094 304.804688 103.164063 304.804688 99.671875 C 304.804688 96.183594 301.976563 93.351563 298.480469 93.351563 C 294.988281 93.351563 292.160156 96.183594 292.160156 99.671875 M 292.160156 82.699219 C 292.160156 86.191406 294.988281 89.023438 298.480469 89.023438 C 301.976563 89.023438 304.804688 86.191406 304.804688 82.699219 C 304.804688 79.207031 301.976563 76.378906 298.480469 76.378906 C 294.988281 76.378906 292.160156 79.207031 292.160156 82.699219 M 292.160156 65.730469 C 292.160156 69.21875 294.988281 72.050781 298.480469 72.050781 C 301.976563 72.050781 304.804688 69.21875 304.804688 65.730469 C 304.804688 62.238281 301.976563 59.402344 298.480469 59.402344 C 294.988281 59.402344 292.160156 62.234375 292.160156 65.730469 M 292.160156 48.753906 C 292.160156 52.246094 294.988281 55.078125 298.480469 55.078125 C 301.976563 55.078125 304.804688 52.246094 304.804688 48.753906 C 304.804688 45.261719 301.976563 42.433594 298.480469 42.433594 C 294.988281 42.433594 292.160156 45.261719 292.160156 48.753906 M 292.160156 31.78125 C 292.160156 35.273438 294.988281 38.101563 298.480469 38.101563 C 301.976563 38.101563 304.804688 35.273438 304.804688 31.78125 C 304.804688 28.289063 301.976563 25.457031 298.480469 25.457031 C 294.988281 25.457031 292.160156 28.289063 292.160156 31.78125 M 292.160156 14.808594 C 292.160156 18.300781 294.988281 21.132813 298.480469 21.132813 C 301.976563 21.132813 304.804688 18.300781 304.804688 14.808594 C 304.804688 11.316406 301.976563 8.484375 298.480469 8.484375 C 294.988281 8.484375 292.160156 11.316406 292.160156 14.808594 M 276.402344 142.105469 C 276.402344 145.601563 279.238281 148.429688 282.730469 148.429688 C 286.222656 148.429688 289.054688 145.601563 289.054688 142.105469 C 289.054688 138.613281 286.222656 135.78125 282.730469 135.78125 C 279.238281 135.78125 276.402344 138.613281 276.402344 142.105469 M 276.402344 125.132813 C 276.402344 128.625 279.238281 131.457031 282.730469 131.457031 C 286.222656 131.457031 289.054688 128.625 289.054688 125.132813 C 289.054688 121.644531 286.222656 118.808594 282.730469 118.808594 C 279.238281 118.808594 276.402344 121.644531 276.402344 125.132813 M 276.402344 108.160156 C 276.402344 111.652344 279.238281 114.480469 282.730469 114.480469 C 286.222656 114.480469 289.054688 111.652344 289.054688 108.160156 C 289.054688 104.667969 286.222656 101.835938 282.730469 101.835938 C 279.238281 101.835938 276.402344 104.667969 276.402344 108.160156 M 276.402344 91.1875 C 276.402344 94.675781 279.238281 97.511719 282.730469 97.511719 C 286.222656 97.511719 289.054688 94.675781 289.054688 91.1875 C 289.054688 87.695313 286.222656 84.863281 282.730469 84.863281 C 279.238281 84.863281 276.402344 87.695313 276.402344 91.1875 M 276.402344 74.210938 C 276.402344 77.703125 279.238281 80.539063 282.730469 80.539063 C 286.222656 80.539063 289.054688 77.703125 289.054688 74.210938 C 289.054688 70.722656 286.222656 67.890625 282.730469 67.890625 C 279.238281 67.890625 276.402344 70.722656 276.402344 74.210938 M 276.402344 57.242188 C 276.402344 60.734375 279.238281 63.5625 282.730469 63.5625 C 286.222656 63.5625 289.054688 60.734375 289.054688 57.242188 C 289.054688 53.75 286.222656 50.917969 282.730469 50.917969 C 279.238281 50.917969 276.402344 53.75 276.402344 57.242188 M 276.402344 40.265625 C 276.402344 43.757813 279.238281 46.59375 282.730469 46.59375 C 286.222656 46.59375 289.054688 43.757813 289.054688 40.265625 C 289.054688 36.777344 286.222656 33.945313 282.730469 33.945313 C 279.238281 33.945313 276.402344 36.777344 276.402344 40.265625 M 276.402344 23.292969 C 276.402344 26.785156 279.238281 29.617188 282.730469 29.617188 C 286.222656 29.617188 289.054688 26.785156 289.054688 23.292969 C 289.054688 19.800781 286.222656 16.972656 282.730469 16.972656 C 279.238281 16.972656 276.402344 19.800781 276.402344 23.292969 M 276.402344 6.320313 C 276.402344 9.8125 279.238281 12.644531 282.730469 12.644531 C 286.222656 12.644531 289.054688 9.8125 289.054688 6.320313 C 289.054688 2.828125 286.222656 -0.00390625 282.730469 -0.00390625 C 279.238281 -0.00390625 276.402344 2.828125 276.402344 6.320313 M 216.582031 108.160156 C 216.582031 104.667969 219.414063 101.835938 222.90625 101.835938 C 226.398438 101.835938 229.230469 104.667969 229.230469 108.160156 C 229.230469 111.652344 226.398438 114.480469 222.90625 114.480469 C 219.414063 114.480469 216.582031 111.652344 216.582031 108.160156 "/>
</g>
<path style=" stroke:none;fill-rule:nonzero;fill:rgb(88.598633%,12.199402%,14.898682%);fill-opacity:1;" d="M 246.691406 91.1875 C 246.691406 87.695313 249.523438 84.863281 253.015625 84.863281 C 256.511719 84.863281 259.339844 87.695313 259.339844 91.1875 C 259.339844 94.675781 256.511719 97.511719 253.015625 97.511719 C 249.523438 97.511719 246.691406 94.675781 246.691406 91.1875 "/>
<path style=" stroke:none;fill-rule:nonzero;fill:rgb(0.799561%,0.799561%,0.799561%);fill-opacity:1;" d="M 163.550781 47.425781 L 156.554688 47.425781 L 156.554688 99.230469 L 189.816406 99.230469 L 189.816406 93.027344 L 163.550781 93.027344 Z M 115.214844 69.359375 L 127.84375 69.359375 C 134.554688 69.359375 138.664063 67.335938 138.664063 60.992188 C 138.664063 56.15625 135.710938 53.414063 127.914063 53.414063 L 115.214844 53.414063 Z M 108.21875 47.425781 L 131.015625 47.425781 C 140.683594 47.425781 145.664063 53.414063 145.664063 60.488281 C 145.664063 63.878906 144.4375 68.640625 138.738281 71.308594 C 142.132813 72.679688 148.113281 75.058594 148.113281 83.9375 C 148.113281 92.230469 141.984375 99.230469 130.511719 99.230469 L 108.21875 99.230469 Z M 115.214844 93.242188 L 130.152344 93.242188 C 137.4375 93.242188 141.121094 89.558594 141.121094 83.789063 C 141.121094 76.5 134.695313 75.058594 128.996094 75.058594 L 115.21875 75.058594 L 115.21875 93.242188 Z M 96.898438 99.230469 L 96.898438 47.425781 L 86.9375 47.425781 L 72.21875 91.222656 L 72.074219 91.222656 L 57.28125 47.425781 L 47.253906 47.425781 L 47.253906 99.230469 L 54.035156 99.230469 L 54.035156 68.636719 C 54.035156 67.121094 53.890625 60.558594 53.890625 55.796875 L 54.035156 55.796875 L 68.609375 99.230469 L 75.539063 99.230469 L 90.113281 55.722656 L 90.257813 55.722656 C 90.257813 60.558594 90.113281 67.121094 90.113281 68.636719 L 90.113281 99.230469 Z M 38.238281 99.230469 L 0 99.230469 L 0 47.425781 L 37.730469 47.425781 L 37.730469 53.632813 L 6.996094 53.632813 L 6.996094 69.503906 L 35.351563 69.503906 L 35.351563 75.710938 L 6.996094 75.710938 L 6.996094 93.027344 L 38.238281 93.027344 L 38.238281 99.230469 "/>
</g>
</svg>
