<?xml version="1.0" encoding="UTF-8" standalone="no"?>
<!-- Generator: Adobe Illustrator 19.1.0, SVG Export Plug-In . SVG Version: 6.00 Build 0)  -->

<svg
   version="1.1"
   id="Layer_1"
   x="0px"
   y="0px"
   viewBox="0 0 1158.4 726.79999"
   xml:space="preserve"
   sodipodi:docname="nih-logo.svg"
   width="1158.4"
   height="726.79999"
   inkscape:version="1.2.2 (b0a8486, 2022-12-01)"
   xmlns:inkscape="http://www.inkscape.org/namespaces/inkscape"
   xmlns:sodipodi="http://sodipodi.sourceforge.net/DTD/sodipodi-0.dtd"
   xmlns="http://www.w3.org/2000/svg"
   xmlns:svg="http://www.w3.org/2000/svg"><defs
   id="defs11" /><sodipodi:namedview
   id="namedview9"
   pagecolor="#ffffff"
   bordercolor="#000000"
   borderopacity="0.25"
   inkscape:showpageshadow="2"
   inkscape:pageopacity="0.0"
   inkscape:pagecheckerboard="0"
   inkscape:deskcolor="#d1d1d1"
   showgrid="false"
   inkscape:zoom="0.2979798"
   inkscape:cx="577.22034"
   inkscape:cy="362.44068"
   inkscape:window-width="1309"
   inkscape:window-height="456"
   inkscape:window-x="2043"
   inkscape:window-y="302"
   inkscape:window-maximized="0"
   inkscape:current-layer="Layer_1" />
<style
   type="text/css"
   id="style2">
	.st0{fill:#5E5F5F;}
</style>
<path
   class="st0"
   d="M 1007.8,363.1 806.1,726.6 H 66.9 C 30,726.6 0,696.7 0,659.7 V 66.9 C 0,30 29.9,0 66.9,0 h 740 z M 376,526.6 V 201.8 H 321.9 V 441 h -1 L 172.7,201.8 v 0 h -60 v 0 324.8 0 h 54.2 V 287.7 h 1.4 L 316.2,526.6 H 376 Z m 112.9,0 V 201.8 h -56.8 v 324.8 h 56.8 z M 807.4,201.8 h -56.8 v 0 V 331 H 602.7 V 201.8 h -56.8 v 324.8 h 56.8 V 380.2 h 147.9 v 146.5 0 h 56.8 V 201.8 Z"
   id="path4" />
<path
   class="st0"
   d="M 856.6,726.8 1057.9,363.1 857.3,0 h 50.3 c 27.5,0 61,19.7 74.3,43.8 L 1158.4,363 981.2,682.9 c -13.3,24 -46.8,43.7 -74.3,43.7 z"
   id="path6" />
</svg>
